<svg width="165" height="20" viewBox="0 0 165 20" fill="none" xmlns="http://www.w3.org/2000/svg">
<g clip-path="url(#clip0)">
<path d="M163.25 4.76837e-07H155.875L141.5 9.625C139.875 11 139.625 11.625 139.375 12.875L139 14.875H153.875L152.875 20H159.375L160.375 14.875H163.625L164.5 10.375H161.25L163.25 4.76837e-07ZM154.75 10.375H147.5L155.625 5.5L154.75 10.375ZM123.5 14C123.875 12.5 124.5 12.25 126.125 12.25H132.5C138.5 12.25 141 10 141 5.125C141 1.25 137.125 -0.125 131.125 -0.125H120.875L119.875 5.125H132.375C133.875 5.125 134.125 5.5 134.125 6.25C134.125 7.25 133.375 7.5 131.5 7.5H126.625C118.5 7.5 117.75 9.625 117 13.75L115.875 19.75H134.125C136.375 19.75 137.125 19.5 137.75 17.125L138.25 14.75H123.125L123.5 14Z" fill="#EABD00"/>
<path d="M67.25 0H58.25C52.125 0 50.875 3.25 49.875 8.75L49.125 12.625C47.875 18.625 50.75 20 55.5 20H64.5C70.625 20 71.875 16.75 72.875 11.25L73.625 7.375C75 1.25 72.125 0 67.25 0ZM66.875 8.625L66.625 10.25C65.75 14.625 64.5 14.875 61.625 14.875H59.375C56.5 14.875 55.625 14.375 56.25 11.25L56.5 9.625C57.375 5.25 58.625 5 61.5 5H63.75C66.5 5 67.5 5.625 66.875 8.625ZM43.625 0H27.75L24.5 17C24 19.625 24.75 19.875 26.5 20H30.5L31.625 14.375H37.125C43.5 14.375 49.375 13.5 49.375 5.625C49.25 2.5 47.625 0.125 43.625 0ZM38.75 9.375H32.5L33.375 5H39.625C41 5 41.875 5.625 41.875 6.75C41.875 8.75 40.25 9.375 38.75 9.375ZM98.75 5.125C98.75 2.125 97.125 0.125 93 0H77.125L73.875 17C73.375 19.625 74.125 19.875 75.875 20H79.875L81.125 13.5H87.375L89 17.625C89.875 19.75 90.75 20 92.875 20H97.125L93.625 12.25C96 11.5 98.75 9.5 98.75 5.125ZM88.25 8.75H82L82.75 5H89C90.375 5 91.375 5.375 91.375 6.5C91.375 8.625 89.75 8.75 88.25 8.75ZM121 0H100.125L99.75 2.25C99.25 4.75 100.125 5.25 102.625 5.25H106.25L103.375 20H110L112.875 5.25H120L121 0ZM17.5 7.625H12.125C10.5 7.625 9.87499 7.25 9.87499 6.375C9.87499 5.375 10.5 5.125 12.875 5.125H21.25C24.625 5.125 24.875 4.5 25.25 2.125L25.625 0H12.25C8 0 4.5 0.250001 3.75 4L3.125 7.25C2.5 10.75 5.375 12.5 9 12.5H14.375C16 12.5 16.625 12.875 16.625 13.75C16.625 14.75 16 15 13.625 15H4.50001C1.62501 15 0.749996 16 0.249996 18.5L0 20H11.375C19 20 23.375 19.25 23.375 12.75C23.375 9.5 21.125 7.625 17.5 7.625Z" fill="white"/>
</g>
<defs>
<clipPath id="clip0">
<rect width="165" height="20" fill="white"/>
</clipPath>
</defs>
</svg>
